<mxfile host="app.diagrams.net" modified="2021-02-10T08:32:58.653Z" agent="5.0 (Windows NT 10.0; Win64; x64) AppleWebKit/537.36 (KHTML, like Gecko) Chrome/88.0.4324.146 Safari/537.36" etag="MbdzMnGqLAfgo66m4KaW" version="14.3.0" type="github">
  <diagram id="t02KGam_LYWZGQMRXpo9" name="Page-1">
    <mxGraphModel dx="1718" dy="482" grid="1" gridSize="10" guides="1" tooltips="1" connect="1" arrows="1" fold="1" page="1" pageScale="1" pageWidth="850" pageHeight="1100" math="0" shadow="0">
      <root>
        <mxCell id="0" />
        <mxCell id="1" parent="0" />
        <mxCell id="R6jpxO-wajOadxtoFeki-1" value="University Admin" style="shape=umlActor;verticalLabelPosition=bottom;verticalAlign=top;html=1;outlineConnect=0;" vertex="1" parent="1">
          <mxGeometry x="-30" y="30" width="60" height="120" as="geometry" />
        </mxCell>
        <mxCell id="R6jpxO-wajOadxtoFeki-2" value="Create Event" style="ellipse;whiteSpace=wrap;html=1;" vertex="1" parent="1">
          <mxGeometry x="-70" y="220" width="140" height="70" as="geometry" />
        </mxCell>
        <mxCell id="R6jpxO-wajOadxtoFeki-8" style="edgeStyle=orthogonalEdgeStyle;rounded=0;orthogonalLoop=1;jettySize=auto;html=1;exitX=0.5;exitY=0;exitDx=0;exitDy=0;entryX=0;entryY=1;entryDx=0;entryDy=0;" edge="1" parent="1" source="R6jpxO-wajOadxtoFeki-5" target="R6jpxO-wajOadxtoFeki-2">
          <mxGeometry relative="1" as="geometry" />
        </mxCell>
        <mxCell id="R6jpxO-wajOadxtoFeki-5" value="Select Date" style="ellipse;whiteSpace=wrap;html=1;" vertex="1" parent="1">
          <mxGeometry x="-240" y="360" width="140" height="70" as="geometry" />
        </mxCell>
        <mxCell id="R6jpxO-wajOadxtoFeki-9" style="edgeStyle=orthogonalEdgeStyle;rounded=0;orthogonalLoop=1;jettySize=auto;html=1;exitX=0.5;exitY=0;exitDx=0;exitDy=0;entryX=0.5;entryY=1;entryDx=0;entryDy=0;" edge="1" parent="1" source="R6jpxO-wajOadxtoFeki-6" target="R6jpxO-wajOadxtoFeki-2">
          <mxGeometry relative="1" as="geometry" />
        </mxCell>
        <mxCell id="R6jpxO-wajOadxtoFeki-6" value="Select Time" style="ellipse;whiteSpace=wrap;html=1;" vertex="1" parent="1">
          <mxGeometry x="-70" y="410" width="140" height="70" as="geometry" />
        </mxCell>
        <mxCell id="R6jpxO-wajOadxtoFeki-10" style="edgeStyle=orthogonalEdgeStyle;rounded=0;orthogonalLoop=1;jettySize=auto;html=1;exitX=0.5;exitY=0;exitDx=0;exitDy=0;entryX=1;entryY=1;entryDx=0;entryDy=0;" edge="1" parent="1" source="R6jpxO-wajOadxtoFeki-7" target="R6jpxO-wajOadxtoFeki-2">
          <mxGeometry relative="1" as="geometry" />
        </mxCell>
        <mxCell id="R6jpxO-wajOadxtoFeki-7" value="Select Campus" style="ellipse;whiteSpace=wrap;html=1;" vertex="1" parent="1">
          <mxGeometry x="100" y="360" width="140" height="70" as="geometry" />
        </mxCell>
        <mxCell id="R6jpxO-wajOadxtoFeki-11" value="Extends" style="text;html=1;align=center;verticalAlign=middle;resizable=0;points=[];autosize=1;" vertex="1" parent="1">
          <mxGeometry x="-130" y="300" width="60" height="20" as="geometry" />
        </mxCell>
        <mxCell id="R6jpxO-wajOadxtoFeki-12" value="Extends" style="text;html=1;align=center;verticalAlign=middle;resizable=0;points=[];autosize=1;" vertex="1" parent="1">
          <mxGeometry x="70" y="300" width="60" height="20" as="geometry" />
        </mxCell>
        <mxCell id="R6jpxO-wajOadxtoFeki-13" value="Extends" style="text;html=1;align=center;verticalAlign=middle;resizable=0;points=[];autosize=1;" vertex="1" parent="1">
          <mxGeometry y="350" width="60" height="20" as="geometry" />
        </mxCell>
        <mxCell id="R6jpxO-wajOadxtoFeki-14" value="" style="endArrow=none;html=1;" edge="1" parent="1">
          <mxGeometry width="50" height="50" relative="1" as="geometry">
            <mxPoint y="210" as="sourcePoint" />
            <mxPoint y="170" as="targetPoint" />
          </mxGeometry>
        </mxCell>
      </root>
    </mxGraphModel>
  </diagram>
</mxfile>
